<svg width="115" height="43" viewBox="0 0 115 43" fill="none" xmlns="http://www.w3.org/2000/svg">
  <!-- Base drone SVG structure - will be colorized via CSS/component props -->
  <g>
    <!-- Main body -->
    <path d="M55.5 6.75H58.875C60.375 6.75 61.875 7.875 61.875 9.75V17.25C61.875 18.75 60.375 20.25 58.875 20.25H55.5C54 20.25 52.5 18.75 52.5 17.25V9.75C52.5 7.875 54 6.75 55.5 6.75Z" fill="currentColor" opacity="0.8"/>
    
    <!-- Bottom section -->
    <path d="M62.625 20.625C62.25 22.125 60.75 23.25 59.25 23.25H55.125C53.625 23.25 52.125 22.125 51.75 20.625H62.625Z" fill="currentColor" opacity="0.7"/>
    
    <!-- Left arm -->
    <path d="M50.25 20.25C49.875 18 50.25 13.875 50.25 11.625C50.25 9.75 51.375 8.25 52.875 7.5C52.125 7.875 51.75 8.625 51.75 9.75V17.625C51.75 18.75 52.5 19.5 53.25 20.25H50.25Z" fill="currentColor" opacity="0.75"/>
    
    <!-- Right arm -->
    <path d="M61.5 7.5C63 8.25 64.5 9.75 64.5 11.625C64.5 13.875 64.5 18 64.125 20.25H61.125C61.875 19.5 62.625 18.75 62.625 17.625V9.75C62.625 8.625 62.25 7.875 61.5 7.5Z" fill="currentColor" opacity="0.75"/>
    
    <!-- Propeller -->
    <path d="M51 29.25L54 23.625H60.375L63.375 29.25L60.375 34.5H54L51 29.25ZM57.375 25.5C59.25 25.5 60.75 27 60.75 29.25C60.75 31.125 59.25 32.625 57.375 32.625C55.125 32.625 53.625 31.125 53.625 29.25C53.625 27 55.125 25.5 57.375 25.5Z" fill="currentColor" opacity="0.85"/>
    
    <!-- Detail highlight -->
    <path d="M59.25 27.375C59.625 27.75 60 28.5 60 29.25C60 30 59.625 30.75 58.875 31.125C58.5 30.75 57.75 30.375 57.375 30.375C56.625 30.375 55.875 30.75 55.5 31.125C54.75 30.75 54.375 30 54.375 29.25C54.375 28.5 54.75 27.75 55.125 27.375C55.5 27.75 56.25 28.125 57.375 28.125C58.125 28.125 58.875 27.75 59.25 27.375Z" fill="currentColor" opacity="0.6"/>
  </g>
</svg>
